<svg xmlns="http://www.w3.org/2000/svg" width="131" height="38" viewBox="0 0 131 38">
    <g fill="none" fill-rule="evenodd">
        <text fill="#FFF" font-family="Tele-Grotesk-Fett, Tele-GroteskFet" font-size="22.5" transform="translate(.5 -10)">
            <tspan x=".131" y="23">Apple iPhone X</tspan>
        </text>
        <path d="M19.5 22h18v18h-18z"/>
        <path fill="#000" fill-rule="nonzero" d="M28.5 34.953l4.635 2.797-1.23-5.273L36 28.93l-5.393-.457L28.5 23.5l-2.107 4.973L21 28.93l4.095 3.547-1.23 5.273z"/>
        <path d="M19.5 22h18v18h-18zM38 22h18v18H38z"/>
        <path fill="#000" fill-rule="nonzero" d="M47 34.953l4.635 2.797-1.23-5.273L54.5 28.93l-5.393-.457L47 23.5l-2.107 4.973-5.393.457 4.095 3.547-1.23 5.273z"/>
        <path d="M38 22h18v18H38z"/>
        <g>
            <path d="M56.5 22h18v18h-18z"/>
            <path fill="#000" fill-rule="nonzero" d="M65.5 34.953l4.635 2.797-1.23-5.273L73 28.93l-5.393-.457L65.5 23.5l-2.107 4.973L58 28.93l4.095 3.547-1.23 5.273z"/>
            <path d="M56.5 22h18v18h-18z"/>
        </g>
        <g>
            <path d="M75 22h18v18H75z"/>
            <path fill="#000" fill-rule="nonzero" d="M84 34.953l4.635 2.797-1.23-5.273L91.5 28.93l-5.393-.457L84 23.5l-2.107 4.973-5.393.457 4.095 3.547-1.23 5.273z"/>
            <path d="M75 22h18v18H75z"/>
        </g>
        <g>
            <path fill="#000" fill-rule="nonzero" d="M110 28.93l-5.393-.465L102.5 23.5l-2.107 4.973L95 28.93l4.095 3.547-1.23 5.273 4.635-2.797 4.635 2.797-1.223-5.273L110 28.93zm-7.5 4.62l-2.82 1.702.75-3.21-2.49-2.16 3.285-.285 1.275-3.022 1.283 3.03 3.285.285-2.49 2.16.75 3.21-2.828-1.71z"/>
            <path d="M93.5 22h18v18h-18z"/>
        </g>
    </g>
</svg>
